<svg xmlns="http://www.w3.org/2000/svg" viewBox="0 0 900 520" preserveAspectRatio="none">
<defs><linearGradient id="bg" x1="0" y1="0" x2="1" y2="1"><stop stop-color="#e9ffd6"/><stop offset="1" stop-color="#74dd45"/></linearGradient><filter id="shadow" x="-8%" y="-8%" width="116%" height="126%"><feDropShadow dx="0" dy="11" stdDeviation="5" flood-color="#087b25" flood-opacity=".25"/></filter></defs>
<rect x="18" y="20" width="864" height="480" rx="42" fill="url(#bg)" stroke="#159227" stroke-width="14" filter="url(#shadow)"/><rect x="42" y="42" width="816" height="436" rx="32" fill="none" stroke="#f4ffe8" stroke-width="4" stroke-dasharray="10 10" opacity=".9"/><circle cx="92" cy="420" r="82" fill="#49c729" opacity=".35"/><circle cx="165" cy="455" r="70" fill="#31b91f" opacity=".25"/><path d="M770 354l12 26 29 3-21 20 5 28-25-15-25 15 5-28-21-20 29-3z" fill="#ffdf54"/><rect x="95" y="78" width="18" height="46" rx="9" fill="#278ce8" transform="rotate(24 104 101)"/><rect x="170" y="84" width="18" height="46" rx="9" fill="#25bd3b" transform="rotate(24 179 107)"/><rect x="245" y="72" width="18" height="46" rx="9" fill="#ff5b98" transform="rotate(-22 254 95)"/></svg>
