<svg xmlns="http://www.w3.org/2000/svg" viewBox="0 0 900 520" preserveAspectRatio="none">
<defs><linearGradient id="bg" x1="0" y1="0" x2="1" y2="1"><stop stop-color="#2aa8ff"/><stop offset="1" stop-color="#dff4ff"/></linearGradient><filter id="shadow" x="-8%" y="-8%" width="116%" height="126%"><feDropShadow dx="0" dy="11" stdDeviation="5" flood-color="#0b54b8" flood-opacity=".25"/></filter></defs>
<rect x="18" y="20" width="864" height="480" rx="42" fill="url(#bg)" stroke="#0b62d4" stroke-width="14" filter="url(#shadow)"/><rect x="42" y="42" width="816" height="436" rx="32" fill="none" stroke="#bce9ff" stroke-width="4" stroke-dasharray="10 10" opacity=".85"/><circle cx="72" cy="410" r="78" fill="#fff" opacity=".55"/><circle cx="808" cy="85" r="58" fill="#fff" opacity=".32"/><path d="M95 98l13 29 32 4-24 22 6 31-27-16-27 16 6-31-24-22 32-4z" fill="#ffd84a" stroke="#f6a400" stroke-width="7"/><path d="M780 350l10 22 24 3-18 16 5 23-21-12-21 12 5-23-18-16 24-3z" fill="#ffdf54"/></svg>
