<svg xmlns="http://www.w3.org/2000/svg" viewBox="0 0 900 520" preserveAspectRatio="none">
<defs><linearGradient id="bg" x1="0" y1="0" x2="1" y2="1"><stop stop-color="#ffe1ec"/><stop offset="1" stop-color="#ff75a0"/></linearGradient><filter id="shadow" x="-8%" y="-8%" width="116%" height="126%"><feDropShadow dx="0" dy="11" stdDeviation="5" flood-color="#c9215a" flood-opacity=".25"/></filter></defs>
<rect x="18" y="20" width="864" height="480" rx="42" fill="url(#bg)" stroke="#e3346c" stroke-width="14" filter="url(#shadow)"/><rect x="42" y="42" width="816" height="436" rx="32" fill="none" stroke="#ffeaf1" stroke-width="4" stroke-dasharray="10 10" opacity=".9"/><circle cx="80" cy="420" r="80" fill="#fff" opacity=".36"/><circle cx="805" cy="410" r="70" fill="#fff" opacity=".25"/><path d="M72 105c11-30 52-17 34 13 27-16 50 18 16 38-18 11-37 22-50 38-13-16-32-27-50-38-34-20-11-54 16-38-18-30 23-43 34-13z" fill="#ff6f9c" opacity=".75"/><path d="M780 355l12 26 29 3-21 20 5 28-25-15-25 15 5-28-21-20 29-3z" fill="#ffdf54"/></svg>
