<svg xmlns="http://www.w3.org/2000/svg" viewBox="0 0 900 520" preserveAspectRatio="none">
<defs><linearGradient id="bg" x1="0" y1="0" x2="1" y2="1"><stop stop-color="#7538d8"/><stop offset="1" stop-color="#27105e"/></linearGradient><filter id="shadow" x="-8%" y="-8%" width="116%" height="126%"><feDropShadow dx="0" dy="11" stdDeviation="5" flood-color="#16043e" flood-opacity=".35"/></filter></defs>
<rect x="18" y="20" width="864" height="480" rx="42" fill="url(#bg)" stroke="#4b209d" stroke-width="14" filter="url(#shadow)"/><rect x="42" y="42" width="816" height="436" rx="32" fill="none" stroke="#b99cff" stroke-width="4" stroke-dasharray="10 10" opacity=".9"/><path d="M0 0h900v520H0z" fill="url(#bg)" opacity=".08"/><circle cx="140" cy="105" r="44" fill="#8cecff" opacity=".18"/><circle cx="770" cy="92" r="62" fill="#fff" opacity=".1"/><path d="M102 95l11 25 27 3-20 18 5 27-23-14-24 14 5-27-20-18 27-3z" fill="#ffdf54"/><path d="M786 350l13 28 31 4-23 21 6 30-27-16-27 16 6-30-23-21 31-4z" fill="#ffdf54"/></svg>
