<svg xmlns="http://www.w3.org/2000/svg" viewBox="0 0 260 220">
<defs><linearGradient id="cube" x1="0" y1="0" x2="1" y2="1"><stop stop-color="#5f32c9"/><stop offset="1" stop-color="#17043f"/></linearGradient><filter id="s" x="-20%" y="-20%" width="140%" height="150%"><feDropShadow dx="0" dy="8" stdDeviation="5" flood-color="#13032f" flood-opacity=".45"/></filter></defs>
<g filter="url(#s)"><path d="M52 64l75-38 80 38-78 42z" fill="#2d146f" stroke="#fff" stroke-width="7"/><path d="M52 64v93l77 39v-90z" fill="url(#cube)" stroke="#fff" stroke-width="7"/><path d="M207 64v93l-78 39v-90z" fill="#3b1b8f" stroke="#fff" stroke-width="7"/><path d="M93 75l12 25 27 4-20 18 6 27-25-14-24 14 6-27-20-18 27-4z" fill="#fff6a7" opacity=".9"/><path d="M168 89c0-25-41-26-45-2" fill="none" stroke="#ffd85e" stroke-width="15" stroke-linecap="round"/><path d="M145 101c26-2 25 38 0 40" fill="none" stroke="#ffd85e" stroke-width="15" stroke-linecap="round"/><circle cx="145" cy="168" r="9" fill="#ffd85e"/><circle cx="63" cy="119" r="6" fill="#ff7ab1"/><circle cx="194" cy="127" r="7" fill="#8cecff"/></g></svg>
