<svg xmlns="http://www.w3.org/2000/svg" viewBox="0 0 260 220">
<defs><linearGradient id="g" x1="0" y1="0" x2="1" y2="1"><stop stop-color="#42d7ff"/><stop offset="1" stop-color="#1678e9"/></linearGradient><filter id="s" x="-20%" y="-20%" width="140%" height="150%"><feDropShadow dx="0" dy="8" stdDeviation="5" flood-color="#0b3d91" flood-opacity=".35"/></filter></defs>
<g filter="url(#s)"><path d="M43 44h154c18 0 30 12 30 30v86c0 18-12 30-30 30H43c-18 0-30-12-30-30V74c0-18 12-30 30-30z" fill="#fff"/><path d="M52 57h136c15 0 25 10 25 25v68c0 15-10 25-25 25H52c-15 0-25-10-25-25V82c0-15 10-25 25-25z" fill="#153e8f"/><path d="M61 68h118c13 0 22 8 22 20v50c0 12-9 20-22 20H61c-13 0-22-8-22-20V88c0-12 9-20 22-20z" fill="url(#g)"/><path d="M80 82c-17 6-25 15-28 31" fill="none" stroke="#9df0ff" stroke-width="8" stroke-linecap="round" opacity=".55"/><path d="M91 108c0 9-5 16-12 16s-12-7-12-16 5-16 12-16 12 7 12 16zm91 0c0 9-5 16-12 16s-12-7-12-16 5-16 12-16 12 7 12 16z" fill="#10245c"/><path d="M111 128c12 15 31 15 43 0" fill="none" stroke="#10245c" stroke-width="8" stroke-linecap="round"/><circle cx="53" cy="134" r="14" fill="#ff6f9c"/><circle cx="197" cy="134" r="14" fill="#ff6f9c"/><path d="M105 190h48v16H105z" fill="#d6e6ff"/><path d="M78 206h102c9 0 16 7 16 15H62c0-8 7-15 16-15z" fill="#fff"/></g><path d="M29 27l10 22 24 3-18 16 5 23-21-12-21 12 5-23L-5 52l24-3z" transform="translate(23 139)" fill="#ffd23f" stroke="#f6a400" stroke-width="5"/></svg>
