<svg xmlns="http://www.w3.org/2000/svg" viewBox="0 0 260 220">
<defs><linearGradient id="box" x1="0" y1="0" x2="1" y2="1"><stop stop-color="#36d85b"/><stop offset="1" stop-color="#10952e"/></linearGradient><filter id="s" x="-20%" y="-20%" width="140%" height="150%"><feDropShadow dx="0" dy="8" stdDeviation="5" flood-color="#086e21" flood-opacity=".35"/></filter></defs>
<g filter="url(#s)"><path d="M44 78h172v118H44z" fill="url(#box)" stroke="#087b25" stroke-width="7" rx="16"/><path d="M34 62h192v40H34z" fill="#2fc84d" stroke="#087b25" stroke-width="7" rx="14"/><path d="M111 60h38v136h-38z" fill="#ffd84d"/><path d="M34 86h192v22H34z" fill="#ffe574" opacity=".9"/><path d="M83 62c-42-39 2-60 47 0" fill="none" stroke="#ffe574" stroke-width="15" stroke-linecap="round"/><path d="M177 62c42-39-2-60-47 0" fill="none" stroke="#ffe574" stroke-width="15" stroke-linecap="round"/><path d="M92 50c24 1 33 8 38 12-24 0-35-2-38-12zm76 0c-24 1-33 8-38 12 24 0 35-2 38-12z" fill="#fff5a6"/><path d="M62 120c21-13 39-16 56-10" stroke="#7af084" stroke-width="7" stroke-linecap="round" opacity=".55"/></g><path d="M190 118l10 23 25 3-19 17 6 24-22-13-22 13 6-24-19-17 25-3z" fill="#ffd23f" stroke="#f6a400" stroke-width="5"/></svg>
