<svg xmlns="http://www.w3.org/2000/svg" viewBox="0 0 260 220">
<defs><linearGradient id="cup" x1="0" y1="0" x2="1" y2="1"><stop stop-color="#ff9ab9"/><stop offset="1" stop-color="#ef4079"/></linearGradient><filter id="s" x="-20%" y="-20%" width="140%" height="150%"><feDropShadow dx="0" dy="8" stdDeviation="5" flood-color="#a51b49" flood-opacity=".35"/></filter></defs>
<g filter="url(#s)"><path d="M61 96c6-38 38-61 76-53 38 8 60 36 55 74-13-14-29-12-43 1-16-18-39-16-53 2-13-15-25-20-35-24z" fill="#fff3cf" stroke="#d88f28" stroke-width="7"/><path d="M64 103h130l-20 88H84z" fill="url(#cup)" stroke="#bf2358" stroke-width="7" rx="18"/><path d="M76 121h106" stroke="#ffcad9" stroke-width="9" stroke-linecap="round"/><path d="M86 145c0 8-5 14-11 14s-11-6-11-14 5-14 11-14 11 6 11 14zm88 0c0 8-5 14-11 14s-11-6-11-14 5-14 11-14 11 6 11 14z" fill="#10245c"/><path d="M105 164c13 12 29 12 42 0" fill="none" stroke="#10245c" stroke-width="7" stroke-linecap="round"/><circle cx="95" cy="74" r="9" fill="#2cc7ff"/><circle cx="150" cy="67" r="8" fill="#ff5f91"/><circle cx="178" cy="93" r="8" fill="#ffe66d"/><path d="M151 29c15-28 45-12 31 15-8 16-27 23-42 30" fill="#9c4b1e"/><path d="M169 28l-28 47" stroke="#fff3cf" stroke-width="12" stroke-linecap="round"/><circle cx="138" cy="33" r="15" fill="#e6254d"/><path d="M131 24c14-10 28-8 42 2" stroke="#4abf44" stroke-width="7" stroke-linecap="round"/></g></svg>
